<?xml version="1.0" encoding="iso-8859-1"?>
<!-- Generator: Adobe Illustrator 18.0.0, SVG Export Plug-In . SVG Version: 6.00 Build 0)  -->
<!DOCTYPE svg PUBLIC "-//W3C//DTD SVG 1.1//EN" "http://www.w3.org/Graphics/SVG/1.1/DTD/svg11.dtd">
<svg version="1.1" id="Capa_1" xmlns="http://www.w3.org/2000/svg" xmlns:xlink="http://www.w3.org/1999/xlink" x="0px" y="0px"
	 viewBox="0 0 297.5 297.5" style="enable-background:new 0 0 297.5 297.5;" xml:space="preserve">
<g id="XMLID_16_">
	<g>
		<path style="fill:#0B77A5;" d="M156.91,190.82c12.54,0,22.75,10.21,22.75,22.76c0,12.54-10.21,22.75-22.75,22.75
			c-12.55,0-22.75-10.21-22.75-22.75C134.16,201.03,144.36,190.82,156.91,190.82z"/>
		<path style="fill:#DE6051;" d="M227.08,109.28l-11.12,77.83c-1.28,9-8.79,15.88-17.75,16.54c-4.49-18.65-21.3-32.56-41.3-32.56
			c-20.03,0-36.86,13.94-41.32,32.62h-11.82c-5.17,0-10.03-2.01-13.68-5.66l-70.1-70.11v-18.66H227.08z"/>
		<path d="M287.39,41.44c5.44,0,9.86,4.41,9.86,9.86s-4.42,9.87-9.86,9.87h-4.38l-18.49,121.27c-0.73,4.82-4.88,8.38-9.75,8.38
			h-19.43c-3.05,18.2-18.71,31.92-37.11,32.59c-4.45,18.7-21.28,32.65-41.32,32.65c-20.03,0-36.86-13.93-41.32-32.62h-11.82
			c-10.44,0-20.25-4.06-27.63-11.44l-73-72.99c-1.85-1.86-2.89-4.36-2.89-6.98V99.41c0-5.45,4.42-9.87,9.87-9.87h228.34
			c2.86,0,5.58,1.24,7.45,3.4c1.88,2.16,2.72,5.03,2.31,7.86l-10.04,70.29h8.11l18.49-121.27c0.74-4.82,4.88-8.38,9.76-8.38H287.39z
			 M215.96,187.11l11.12-77.83H19.99v18.66l70.1,70.11c3.65,3.65,8.51,5.66,13.68,5.66h11.82c4.46-18.68,21.29-32.62,41.32-32.62
			c20,0,36.81,13.91,41.3,32.56C207.17,202.99,214.68,196.11,215.96,187.11z M179.66,213.58c0-12.55-10.21-22.76-22.75-22.76
			c-12.55,0-22.75,10.21-22.75,22.76c0,12.54,10.2,22.75,22.75,22.75C169.45,236.33,179.66,226.12,179.66,213.58z"/>
	</g>
	<g>
	</g>
</g>
<g>
</g>
<g>
</g>
<g>
</g>
<g>
</g>
<g>
</g>
<g>
</g>
<g>
</g>
<g>
</g>
<g>
</g>
<g>
</g>
<g>
</g>
<g>
</g>
<g>
</g>
<g>
</g>
<g>
</g>
</svg>
